<?xml version="1.0" encoding="utf-8"?>
<svg id="master-artboard" viewBox="0 0 268 94" version="1.1" xmlns="http://www.w3.org/2000/svg" x="0px" y="0px" style="enable-background:new 0 0 1400 980;" width="268px" height="94px"><defs><clipPath id="_clipPath_8gWp2DnrDfsDNCpL8ZiVzFyNTxkrKN2d"><path d="M 0 0 H 290 V 70 H 0 V 0 Z"/></clipPath><style id="ee-google-fonts">@import url(https://fonts.googleapis.com/css?family=Montserrat:400,700);</style><clipPath id="path-1"><path d="M 0 0 H 290 V 70 H 0 V 0 Z"/></clipPath></defs><rect id="ee-background" x="0" y="0" width="268" height="94" style="fill: white; fill-opacity: 0; pointer-events: none;" transform="matrix(1.0211524963378906, 0, 0, 1.0211524963378906, 8.369323730468778, 13.784301757812507)"/><g clip-path="url(#_clipPath_8gWp2DnrDfsDNCpL8ZiVzFyNTxkrKN2d)" transform="matrix(0.9775564786800715, 0, 0, 0.9775564786800715, 6.983303671559042, 14.236232486483921)"><g transform="matrix(0.9999999999999999, 0, 0, 0.9999999999999999, -1.6859220174542884, -1.348737829327007)"><path d="M 10.590999603271484 49.07699966430664 L 34.97999954223633 63.15800094604492 L 59.36800003051758 49.07699966430664 L 59.36800003051758 20.915000915527344 L 34.97999954223633 6.835000038146973 L 10.590999603271484 20.915000915527344 Z" fill="rgb(38,27,98)" style="fill: rgb(255, 255, 255);"/><path d="M 14.371000289916992 46.3380012512207 L 34.826576232910156 47.36405563354492 L 55.525001525878906 46.44900131225586 L 55.5890007019043 22.68899917602539 L 35.04399871826172 10.753000259399414 L 14.4350004196167 22.577999114990234 L 14.371000289916992 46.3380012512207 Z" fill="rgb(255,255,255)" transform="matrix(0.8596605062484741, 0, 0, 0.8596605062484741, 4.9090776443481445, 4.843608379364014)" style="stroke: rgb(0, 0, 0); stroke-width: 0; fill: rgb(255, 255, 255);"/><path d=" M 55.459 46.571 L 34.866 34.585 L 14.353 46.41 L 34.866 58.315 L 55.459 46.571 Z " fill="rgb(0,169,235)" transform="matrix(0.8626934885978699, 0, 0, 0.8626934885978699, 4.865755081176758, 4.664892167996387)" style="fill: rgb(255, 255, 255);"/><path d="M 39.46095657348633 76.60643005371094" style="fill: rgb(255, 255, 255); fill-opacity: 1; stroke: rgb(0, 0, 0); stroke-opacity: 1; stroke-width: 0; paint-order: stroke;"/></g><path d="M 121.1522216796875 43.41958236694336" style="fill: rgb(255, 255, 255); fill-opacity: 1; stroke: rgb(0, 0, 0); stroke-opacity: 1; stroke-width: 0; paint-order: fill;"/></g><path d="M 286.6724853515625 130.92127990722656 C 286.6724853515625 130.92127990722656 286.6724853515625 131.30126953125 286.6724853515625 132.061279296875 C 286.6724853515625 132.81460571289062 286.1158447265625 133.65127563476562 285.00250244140625 134.57127380371094 C 283.88916015625 135.48460388183594 282.4725036621094 135.94126892089844 280.75250244140625 135.94126892089844 C 279.61248779296875 135.94126892089844 278.4224853515625 135.73460388183594 277.1824951171875 135.32127380371094 C 275.9425048828125 134.91461181640625 274.8258361816406 134.311279296875 273.8324890136719 133.5112762451172 L 275.7225036621094 130.82127380371094 C 277.322509765625 132.061279296875 279.0291748046875 132.6812744140625 280.8424987792969 132.6812744140625 C 281.3958435058594 132.6812744140625 281.8324890136719 132.57127380371094 282.1524963378906 132.3512725830078 C 282.4791564941406 132.1312713623047 282.6424865722656 131.84127807617188 282.6424865722656 131.4812774658203 C 282.6424865722656 131.11460876464844 282.4191589355469 130.78128051757812 281.9725036621094 130.4812774658203 C 281.52581787109375 130.1746063232422 280.8758239746094 129.887939453125 280.0224914550781 129.62127685546875 C 279.17584228515625 129.3546142578125 278.5291748046875 129.12460327148438 278.0824890136719 128.9312744140625 C 277.6358337402344 128.74461364746094 277.1258239746094 128.4679412841797 276.552490234375 128.1012725830078 C 275.3858337402344 127.38127136230469 274.802490234375 126.31127166748047 274.802490234375 124.89127349853516 C 274.802490234375 123.46460723876953 275.3758239746094 122.30460357666016 276.5224914550781 121.41127014160156 C 277.6691589355469 120.51793670654297 279.1458435058594 120.07127380371094 280.9525146484375 120.07127380371094 C 282.7658386230469 120.07127380371094 284.57916259765625 120.6812744140625 286.3924865722656 121.90127563476562 L 284.7925109863281 124.76127624511719 C 283.4525146484375 123.84127044677734 282.12249755859375 123.38127136230469 280.802490234375 123.38127136230469 C 279.475830078125 123.38127136230469 278.8125 123.7446060180664 278.8125 124.47127532958984 C 278.8125 124.87127685546875 279.0224914550781 125.18460845947266 279.4425048828125 125.41127014160156 C 279.86248779296875 125.64460754394531 280.5591735839844 125.91460418701172 281.5325012207031 126.22127532958984 C 282.4991760253906 126.52127075195312 283.1891784667969 126.75460815429688 283.6025085449219 126.92127227783203 C 284.0091552734375 127.0812759399414 284.4991760253906 127.3312759399414 285.072509765625 127.67127227783203 C 286.13916015625 128.32460021972656 286.6724853515625 129.40794372558594 286.6724853515625 130.92127990722656 ZM 293.34814453125 127.42127227783203 L 293.34814453125 135.71127319335938 L 289.0581359863281 135.71127319335938 L 289.0581359863281 114.49127197265625 L 293.34814453125 114.49127197265625 L 293.34814453125 122.04127502441406 C 294.6414794921875 120.72793579101562 296.0948181152344 120.07127380371094 297.7081298828125 120.07127380371094 C 299.32147216796875 120.07127380371094 300.68145751953125 120.64127349853516 301.78814697265625 121.7812728881836 C 302.8948059082031 122.92794036865234 303.4481506347656 124.45460510253906 303.4481506347656 126.36127471923828 L 303.4481506347656 135.71127319335938 L 299.15814208984375 135.71127319335938 L 299.15814208984375 127.30126953125 C 299.15814208984375 124.94126892089844 298.28814697265625 123.76127624511719 296.5481262207031 123.76127624511719 C 295.6947937011719 123.76127624511719 294.9481506347656 124.07127380371094 294.3081359863281 124.69126892089844 C 293.66815185546875 125.30460357666016 293.34814453125 126.21460723876953 293.34814453125 127.42127227783203 ZM 309.85687255859375 128.02127075195312 C 309.85687255859375 128.02127075195312 309.85687255859375 128.33460998535156 309.85687255859375 128.96127319335938 C 309.85687255859375 129.5879364013672 310.21356201171875 130.29794311523438 310.9268798828125 131.09127807617188 C 311.6468811035156 131.88461303710938 312.56353759765625 132.28128051757812 313.6768798828125 132.28128051757812 C 314.79022216796875 132.28128051757812 315.7068786621094 131.88461303710938 316.4268798828125 131.09127807617188 C 317.1402282714844 130.29794311523438 317.49688720703125 129.2746124267578 317.49688720703125 128.02127075195312 C 317.49688720703125 126.76127624511719 317.1402282714844 125.73127746582031 316.4268798828125 124.9312744140625 C 315.7068786621094 124.13127136230469 314.79022216796875 123.73127746582031 313.6768798828125 123.73127746582031 C 312.56353759765625 123.73127746582031 311.6468811035156 124.13127136230469 310.9268798828125 124.9312744140625 C 310.21356201171875 125.73127746582031 309.85687255859375 126.76127624511719 309.85687255859375 128.02127075195312 M 321.81689453125 128.02127075195312 C 321.81689453125 128.02127075195312 321.81689453125 128.57794189453125 321.81689453125 129.69126892089844 C 321.81689453125 130.8046112060547 321.0435485839844 132.12460327148438 319.49688720703125 133.65127563476562 C 317.9502258300781 135.1779327392578 316.0102233886719 135.94126892089844 313.6768798828125 135.94126892089844 C 311.3435363769531 135.94126892089844 309.4035339355469 135.1779327392578 307.85687255859375 133.65127563476562 C 306.3102111816406 132.12460327148438 305.5368957519531 130.24794006347656 305.5368957519531 128.02127075195312 C 305.5368957519531 125.7879409790039 306.3102111816406 123.90460968017578 307.85687255859375 122.37127685546875 C 309.4035339355469 120.83793640136719 311.3435363769531 120.07127380371094 313.6768798828125 120.07127380371094 C 316.0102233886719 120.07127380371094 317.9502258300781 120.83793640136719 319.49688720703125 122.37127685546875 C 321.0435485839844 123.90460968017578 321.81689453125 125.7879409790039 321.81689453125 128.02127075195312 ZM 333.0316162109375 120.07127380371094 C 333.0316162109375 120.07127380371094 333.4815979003906 120.07127380371094 334.381591796875 120.07127380371094 C 335.2749328613281 120.07127380371094 336.4216003417969 120.81793975830078 337.82159423828125 122.31127166748047 C 339.22161865234375 123.81127166748047 339.9216003417969 125.69461059570312 339.9216003417969 127.96127319335938 C 339.9216003417969 130.22793579101562 339.22161865234375 132.12460327148438 337.82159423828125 133.65127563476562 C 336.4216003417969 135.1779327392578 334.7816162109375 135.94126892089844 332.901611328125 135.94126892089844 C 331.02825927734375 135.94126892089844 329.5182800292969 135.1879425048828 328.3716125488281 133.6812744140625 L 328.3716125488281 141.2612762451172 L 324.08160400390625 141.2612762451172 L 324.08160400390625 120.32127380371094 L 328.3716125488281 120.32127380371094 L 328.3716125488281 122.04127502441406 C 329.6849365234375 120.72793579101562 331.23828125 120.07127380371094 333.0316162109375 120.07127380371094 M 328.3116149902344 128.03128051757812 C 328.3116149902344 128.03128051757812 328.3116149902344 128.3446044921875 328.3116149902344 128.9712677001953 C 328.3116149902344 129.59127807617188 328.6615905761719 130.29794311523438 329.3616027832031 131.09127807617188 C 330.054931640625 131.88461303710938 330.8982849121094 132.28128051757812 331.8916015625 132.28128051757812 C 332.8782653808594 132.28128051757812 333.74493408203125 131.88461303710938 334.4916076660156 131.09127807617188 C 335.23828125 130.29794311523438 335.6116027832031 129.28460693359375 335.6116027832031 128.05126953125 C 335.6116027832031 126.81127166748047 335.2482604980469 125.77127075195312 334.5216064453125 124.9312744140625 C 333.7949523925781 124.09127044677734 332.92828369140625 123.67127227783203 331.9216003417969 123.67127227783203 C 330.90826416015625 123.67127227783203 330.054931640625 124.08460998535156 329.3616027832031 124.91127014160156 C 328.6615905761719 125.7446060180664 328.3116149902344 126.78460693359375 328.3116149902344 128.03128051757812 ZM 349.60247802734375 132.14126586914062 C 351.0291442871094 132.14126586914062 352.3157958984375 131.4246063232422 353.46246337890625 129.99127197265625 L 356.0024719238281 132.8512725830078 C 354.0224609375 134.91127014160156 351.879150390625 135.94126892089844 349.5724792480469 135.94126892089844 C 347.26580810546875 135.94126892089844 345.3157958984375 135.21127319335938 343.72247314453125 133.7512664794922 C 342.129150390625 132.29127502441406 341.3324890136719 130.38461303710938 341.3324890136719 128.03128051757812 C 341.3324890136719 125.67794036865234 342.1391296386719 123.76127624511719 343.7524719238281 122.2812728881836 C 345.3658142089844 120.80793762207031 347.27581787109375 120.07127380371094 349.48248291015625 120.07127380371094 C 350.5891418457031 120.07127380371094 351.7091369628906 120.29794311523438 352.84246826171875 120.75127410888672 C 353.98248291015625 121.21127319335938 354.9791259765625 121.887939453125 355.8324890136719 122.7812728881836 L 353.60247802734375 125.7012710571289 C 353.109130859375 125.10794067382812 352.50579833984375 124.65127563476562 351.79248046875 124.3312759399414 C 351.0724792480469 124.00460815429688 350.36248779296875 123.84127044677734 349.6624755859375 123.84127044677734 C 348.5357971191406 123.84127044677734 347.5657958984375 124.20793914794922 346.7524719238281 124.94126892089844 C 345.94580078125 125.67460632324219 345.54248046875 126.69461059570312 345.54248046875 128.0012664794922 C 345.54248046875 129.3079376220703 345.94580078125 130.32460021972656 346.7524719238281 131.05126953125 C 347.5657958984375 131.77793884277344 348.51580810546875 132.14126586914062 349.60247802734375 132.14126586914062 ZM 371.0311584472656 135.71127319335938 L 367.00115966796875 135.71127319335938 L 367.00115966796875 133.8512725830078 C 365.89447021484375 135.24461364746094 364.52447509765625 135.94126892089844 362.8911437988281 135.94126892089844 C 361.2644958496094 135.94126892089844 359.8978271484375 135.4679412841797 358.7911376953125 134.52127075195312 C 357.6844787597656 133.58126831054688 357.13116455078125 132.32460021972656 357.13116455078125 130.7512664794922 C 357.13116455078125 129.1779327392578 357.7044982910156 128.0012664794922 358.8511657714844 127.22127532958984 C 359.99114990234375 126.43460845947266 361.5544738769531 126.04127502441406 363.5411376953125 126.04127502441406 L 366.74114990234375 126.04127502441406 L 366.74114990234375 125.96127319335938 C 366.74114990234375 124.32127380371094 365.8744812011719 123.50127410888672 364.1411437988281 123.50127410888672 C 363.39447021484375 123.50127410888672 362.6078186035156 123.64794158935547 361.7811584472656 123.94126892089844 C 360.94781494140625 124.24127197265625 360.2478332519531 124.60794067382812 359.68115234375 125.04127502441406 L 357.7611389160156 122.27127075195312 C 359.7811584472656 120.80460357666016 362.08782958984375 120.07127380371094 364.68115234375 120.07127380371094 C 366.5478210449219 120.07127380371094 368.0744934082031 120.5379409790039 369.2611389160156 121.47127532958984 C 370.441162109375 122.40460968017578 371.0311584472656 123.88127136230469 371.0311584472656 125.90127563476562 L 371.0311584472656 135.71127319335938 M 366.7111511230469 129.8512725830078 L 366.7111511230469 129.1012725830078 L 364.0211486816406 129.1012725830078 C 362.3078308105469 129.1012725830078 361.4511413574219 129.637939453125 361.4511413574219 130.71127319335938 C 361.4511413574219 131.2579345703125 361.65447998046875 131.6812744140625 362.0611572265625 131.9812774658203 C 362.4744873046875 132.2746124267578 363.0611572265625 132.42127990722656 363.8211669921875 132.42127990722656 C 364.58782958984375 132.42127990722656 365.2611389160156 132.1879425048828 365.8411560058594 131.7212677001953 C 366.421142578125 131.25460815429688 366.7111511230469 130.6312713623047 366.7111511230469 129.8512725830078 ZM 385.62298583984375 130.92127990722656 C 385.62298583984375 130.92127990722656 385.62298583984375 131.30126953125 385.62298583984375 132.061279296875 C 385.62298583984375 132.81460571289062 385.06634521484375 133.65127563476562 383.9530029296875 134.57127380371094 C 382.83966064453125 135.48460388183594 381.4230041503906 135.94126892089844 379.7030029296875 135.94126892089844 C 378.56298828125 135.94126892089844 377.37298583984375 135.73460388183594 376.13299560546875 135.32127380371094 C 374.89300537109375 134.91461181640625 373.7763366699219 134.311279296875 372.7829895019531 133.5112762451172 L 374.6730041503906 130.82127380371094 C 376.27301025390625 132.061279296875 377.97967529296875 132.6812744140625 379.7929992675781 132.6812744140625 C 380.3463439941406 132.6812744140625 380.7829895019531 132.57127380371094 381.1029968261719 132.3512725830078 C 381.4296569824219 132.1312713623047 381.5929870605469 131.84127807617188 381.5929870605469 131.4812774658203 C 381.5929870605469 131.11460876464844 381.3696594238281 130.78128051757812 380.9230041503906 130.4812774658203 C 380.476318359375 130.1746063232422 379.8263244628906 129.887939453125 378.9729919433594 129.62127685546875 C 378.1263427734375 129.3546142578125 377.47967529296875 129.12460327148438 377.0329895019531 128.9312744140625 C 376.5863342285156 128.74461364746094 376.0763244628906 128.4679412841797 375.50299072265625 128.1012725830078 C 374.3363342285156 127.38127136230469 373.75299072265625 126.31127166748047 373.75299072265625 124.89127349853516 C 373.75299072265625 123.46460723876953 374.3263244628906 122.30460357666016 375.4729919433594 121.41127014160156 C 376.6196594238281 120.51793670654297 378.0963439941406 120.07127380371094 379.90301513671875 120.07127380371094 C 381.7163391113281 120.07127380371094 383.5296630859375 120.6812744140625 385.3429870605469 121.90127563476562 L 383.7430114746094 124.76127624511719 C 382.40301513671875 123.84127044677734 381.072998046875 123.38127136230469 379.75299072265625 123.38127136230469 C 378.42633056640625 123.38127136230469 377.76300048828125 123.7446060180664 377.76300048828125 124.47127532958984 C 377.76300048828125 124.87127685546875 377.9729919433594 125.18460845947266 378.39300537109375 125.41127014160156 C 378.81298828125 125.64460754394531 379.5096740722656 125.91460418701172 380.4830017089844 126.22127532958984 C 381.4496765136719 126.52127075195312 382.1396789550781 126.75460815429688 382.5530090332031 126.92127227783203 C 382.95965576171875 127.0812759399414 383.4496765136719 127.3312759399414 384.02301025390625 127.67127227783203 C 385.08966064453125 128.32460021972656 385.62298583984375 129.40794372558594 385.62298583984375 130.92127990722656 ZM 393.0142517089844 123.41127014160156 L 393.0142517089844 130.30126953125 C 393.0142517089844 130.8946075439453 393.1676025390625 131.35794067382812 393.4742431640625 131.69126892089844 C 393.7742614746094 132.0246124267578 394.1342468261719 132.19126892089844 394.55426025390625 132.19126892089844 C 395.3609313964844 132.19126892089844 396.03759765625 131.83126831054688 396.5842590332031 131.11126708984375 L 398.1942443847656 134.11126708984375 C 396.854248046875 135.33126831054688 395.4476013183594 135.94126892089844 393.9742431640625 135.94126892089844 C 392.4942626953125 135.94126892089844 391.2442626953125 135.45460510253906 390.2242431640625 134.4812774658203 C 389.2042541503906 133.5079345703125 388.6942443847656 132.18460083007812 388.6942443847656 130.5112762451172 L 388.6942443847656 123.41127014160156 L 386.8942565917969 123.41127014160156 L 386.8942565917969 120.32127380371094 L 388.6942443847656 120.32127380371094 L 388.6942443847656 115.72127532958984 L 393.0142517089844 115.72127532958984 L 393.0142517089844 120.32127380371094 L 396.7342529296875 120.32127380371094 L 396.7342529296875 123.41127014160156 L 393.0142517089844 123.41127014160156 Z" transform="matrix(1.4474259614944458, 0, 0, 1.5035791397094727, -322.7002868652344, -141.8179931640625)" style="fill: rgb(255, 255, 255); white-space: pre; color: rgb(38, 27, 98); fill-opacity: 1; stroke-opacity: 1;"/></svg>